<svg width="24" height="24" viewBox="0 0 24 24" fill="none" xmlns="http://www.w3.org/2000/svg">
<path fill-rule="evenodd" clip-rule="evenodd" d="M16.9871 7.01264C15.9371 5.96264 14.2347 5.96264 13.1848 7.01264L5.58001 14.6174C5.05501 15.1424 4.20382 15.1424 3.67882 14.6174C3.15382 14.0924 3.15382 13.2412 3.67882 12.7162L11.2836 5.11145C13.3836 3.01146 16.7883 3.01146 18.8883 5.11145C20.9883 7.21145 20.9883 10.6162 18.8883 12.7162L11.7589 19.8456C10.4464 21.1581 8.31839 21.1581 7.0059 19.8456C5.6934 18.5332 5.6934 16.4052 7.0059 15.0927L14.1353 7.96323C14.6603 7.43824 15.5115 7.43824 16.0365 7.96323C16.5615 8.48823 16.5615 9.33942 16.0365 9.86442L8.90708 16.9939C8.64458 17.2564 8.64458 17.682 8.90708 17.9445C9.16958 18.207 9.59518 18.207 9.85768 17.9445L16.9871 10.815C18.0371 9.76502 18.0371 8.06264 16.9871 7.01264Z" fill="currentColor"/>
</svg>
