<svg width="16" height="18" viewBox="0 0 16 18" fill="none" xmlns="http://www.w3.org/2000/svg"><path fill-rule="evenodd" clip-rule="evenodd" d="M13.717 12.071a.977.977 0 011.954 0v1.94a3.586 3.586 0 01-3.581 3.581H3.58A3.586 3.586 0 010 14.012V12.07a.977.977 0 011.955 0v1.94c0 .895.732 1.627 1.626 1.627h8.51a1.63 1.63 0 001.626-1.626V12.07zm-9.213-1.79l2.616 2.455a.976.976 0 001.431 0l2.616-2.455a.975.975 0 00-1.336-1.42l-1.019.956V.977a.977.977 0 00-1.954 0v8.84L5.839 8.86a.975.975 0 00-1.336 1.42z" fill="currentColor"/></svg>.7167 14.9065 13.7167 14.0117L13.7167 12.071ZM4.50378 10.2813L7.11952 12.7365C7.29819 12.9282 7.55281 13.0483 7.83567 13.0483C8.11852 13.0483 8.37313 12.9282 8.55109 12.7365L11.1668 10.2813C11.5589 9.91238 11.5777 9.29534 11.2088 8.90327C10.8399 8.5112 10.2228 8.49238 9.83075 8.86132L8.81223 9.81691V0.977278C8.81223 0.43763 8.37459 0 7.83496 0C7.29531 0 6.85768 0.437648 6.85768 0.977278V9.81617L5.83916 8.86057C5.44708 8.49165 4.83005 8.51046 4.46112 8.90253C4.0922 9.2946 4.11101 9.91164 4.50308 10.2806L4.50378 10.2813Z" fill="currentColor"/>
</svg>
