<svg width="18" height="17" viewBox="0 0 18 17" fill="none" xmlns="http://www.w3.org/2000/svg"><path d="M14.276 7.661c-.442 0-.81.342-.81.753v6.342H1.603V3.746h6.834c.442 0 .81-.341.81-.752 0-.41-.368-.752-.81-.752H.81c-.443 0-.811.342-.811.752v12.497c0 .41.368.753.81.753h13.466c.442 0 .81-.342.81-.753V8.397c0-.41-.368-.736-.81-.736z" fill="currentColor"/><path d="M16.689 0h-4.845c-.442 0-.81.342-.81.752s.368.752.81.752h2.91L6.466 9.197a.715.715 0 000 1.06.827.827 0 00.571.223.827.827 0 00.571-.223l8.29-7.693v2.701c0 .41.368.753.81.753.442 0 .81-.342.81-.753V.752C17.5.342 17.132 0 16.69 0z" fill="currentColor"/></svg>1 11.8443 1.50441H14.7548L6.46534 9.19741C6.15218 9.48804 6.15218 9.96671 6.46534 10.2573C6.63113 10.4112 6.83376 10.4796 7.03639 10.4796C7.23902 10.4796 7.44165 10.4112 7.60744 10.2573L15.8969 2.56433V5.26543C15.8969 5.67573 16.2653 6.01764 16.7074 6.01764C17.1495 6.01764 17.5179 5.67573 17.5179 5.26543V0.752205C17.4995 0.341911 17.1311 0 16.689 0Z" fill="currentColor"/>
</svg>
