<svg width="19" height="17" viewBox="0 0 19 17" fill="none" xmlns="http://www.w3.org/2000/svg"><g clip-path="url(#clip0_1029_9445)" fill="currentColor"><path d="M10.01 10.28H2.981V7.4h7.03c.41 0 .695.074.839.203.143.13.232.37.232.72v1.034c0 .37-.09.61-.232.739-.144.13-.43.184-.84.184zm.482-5.595H0V17h2.981v-4.007h5.494L11.082 17h3.338l-2.874-4.025c1.06-.163 1.535-.5 1.927-1.053.393-.554.59-1.44.59-2.622v-.924c0-.701-.072-1.255-.197-1.68a2.823 2.823 0 00-.643-1.125 2.887 2.887 0 00-1.107-.684c-.428-.13-.964-.203-1.624-.203zm6.22-.001c1.265 0 2.29-1.049 2.29-2.342 0-1.294-1.025-2.342-2.29-2.342-1.265 0-2.29 1.048-2.29 2.342 0 1.293 1.025 2.342 2.29 2.342z"/></g><defs><clipPath id="clip0_1029_9445"><path fill="#fff" d="M0 0h19v17H0z"/></clipPath></defs></svg>