<svg width="17" height="14" viewBox="0 0 17 14" fill="none" xmlns="http://www.w3.org/2000/svg"><path fill-rule="evenodd" clip-rule="evenodd" d="M1.306 6.313C5.553 4.424 8.384 3.18 9.801 2.577 13.846.86 14.687.561 15.235.551c.12-.002.39.028.564.173a.632.632 0 01.207.403c.02.115.044.379.025.585-.22 2.352-1.168 8.059-1.65 10.693-.205 1.114-.607 1.488-.996 1.524-.846.08-1.488-.57-2.308-1.119-1.282-.858-2.006-1.392-3.25-2.23-1.438-.967-.506-1.499.313-2.368.215-.227 3.942-3.689 4.014-4.003.01-.039.018-.185-.068-.262-.085-.078-.21-.051-.301-.03-.129.03-2.177 1.412-6.144 4.146-.582.408-1.108.606-1.58.596-.52-.012-1.52-.3-2.264-.547C.884 7.809.159 7.649.223 7.135c.032-.268.394-.542 1.083-.822z" fill="currentColor"/></svg>12.0863 3.9465C12.0012 3.8692 11.8755 3.89563 11.7847 3.91665C11.6562 3.94645 9.60812 5.3286 5.6406 8.06309C5.05927 8.47067 4.53272 8.66926 4.06094 8.65885C3.54085 8.64738 2.54041 8.3586 1.79668 8.11176C0.88446 7.809 0.15945 7.64893 0.222582 7.13475C0.255465 6.86693 0.616679 6.59304 1.30622 6.31307Z" fill="currentColor"/>
</svg>
