<svg width="381" height="381" viewBox="0 0 381 381" fill="none" xmlns="http://www.w3.org/2000/svg">
<g opacity="0.1">
<path d="M0 380.759C0 275.615 85.2361 190.379 190.38 190.379C194.986 308.599 133.573 373.082 0 380.759Z" fill="white"/>
<path d="M381 -0.00112915C381 105.143 295.764 190.379 190.62 190.379C186.014 72.1591 247.427 7.67549 381 -0.00112915Z" fill="white"/>
<path d="M381 380.759C381 275.615 295.764 190.379 190.62 190.379C186.014 308.599 247.427 373.082 381 380.759Z" fill="white"/>
<path d="M-1.66436e-05 -0.00112915C-7.45157e-06 105.143 85.2361 190.379 190.38 190.379C194.986 72.159 133.573 7.67546 -1.66436e-05 -0.00112915Z" fill="white"/>
</g>
</svg>
