<?xml version="1.0" encoding="utf-8"?><svg width="20" height="18" fill="none" xmlns="http://www.w3.org/2000/svg" viewBox="0 0 20 18"><path d="M17.518 1.37h-2.586V.868c0-.482-.421-.868-.947-.868-.525 0-.946.386-.946.868v.502h-6.12V.868c0-.482-.42-.868-.946-.868s-.947.386-.947.868v.502H2.461C1.115 1.37 0 2.373 0 3.627v11.749c0 1.234 1.094 2.257 2.46 2.257h15.08c1.345 0 2.46-1.003 2.46-2.257V3.626c-.021-1.253-1.115-2.256-2.482-2.256zM2.461 3.106h2.586v.502c0 .482.42.868.947.868.525 0 .946-.386.946-.868v-.502h6.12v.502c0 .482.42.868.946.868s.947-.386.947-.868v-.502h2.586c.316 0 .568.232.568.52v2.297H1.893V3.627c0-.29.252-.521.568-.521zm15.057 12.79H2.461c-.316 0-.568-.23-.568-.52V7.64h16.214v7.736a.577.577 0 01-.589.52z" fill="currentColor"/></svg>