<?xml version="1.0" encoding="utf-8"?><svg width="16" height="18" fill="none" xmlns="http://www.w3.org/2000/svg" viewBox="0 0 16 18"><path fill-rule="evenodd" clip-rule="evenodd" d="M13.717 12.071a.977.977 0 011.954 0v1.94a3.586 3.586 0 01-3.581 3.581H3.58A3.586 3.586 0 010 14.012V12.07a.977.977 0 011.955 0v1.94c0 .895.732 1.627 1.626 1.627h8.51a1.63 1.63 0 001.626-1.626V12.07zm-9.213-1.79l2.616 2.455a.976.976 0 001.431 0l2.616-2.455a.975.975 0 00-1.336-1.42l-1.019.956V.977a.977.977 0 00-1.954 0v8.84L5.839 8.86a.975.975 0 00-1.336 1.42z" fill="currentColor"/></svg>