<?xml version="1.0" encoding="utf-8"?><svg width="18" height="17" fill="none" xmlns="http://www.w3.org/2000/svg" viewBox="0 0 18 17"><path d="M14.276 7.661c-.442 0-.81.342-.81.753v6.342H1.603V3.746h6.834c.442 0 .81-.341.81-.752 0-.41-.368-.752-.81-.752H.81c-.443 0-.811.342-.811.752v12.497c0 .41.368.753.81.753h13.466c.442 0 .81-.342.81-.753V8.397c0-.41-.368-.736-.81-.736z" fill="currentColor"/><path d="M16.689 0h-4.845c-.442 0-.81.342-.81.752s.368.752.81.752h2.91L6.466 9.197a.715.715 0 000 1.06.827.827 0 00.571.223.827.827 0 00.571-.223l8.29-7.693v2.701c0 .41.368.753.81.753.442 0 .81-.342.81-.753V.752C17.5.342 17.132 0 16.69 0z" fill="currentColor"/></svg>