<?xml version="1.0" encoding="utf-8"?><svg width="52" height="52" fill="none" xmlns="http://www.w3.org/2000/svg" viewBox="0 0 52 52"><path d="M26 0C11.648 0 0 11.648 0 26s11.648 26 26 26 26-11.648 26-26S40.352 0 26 0zm12.064 17.68c-.39 4.108-2.08 14.092-2.938 18.694-.364 1.95-1.092 2.6-1.768 2.678-1.508.13-2.652-.988-4.108-1.95-2.288-1.508-3.588-2.444-5.798-3.9-2.574-1.69-.91-2.626.572-4.134.39-.39 7.046-6.448 7.176-6.994a.519.519 0 00-.13-.468c-.156-.13-.364-.078-.546-.052-.234.052-3.874 2.47-10.972 7.254-1.04.702-1.976 1.066-2.808 1.04-.936-.026-2.704-.52-4.03-.962-1.638-.52-2.912-.806-2.808-1.716.052-.468.702-.936 1.924-1.43 7.592-3.302 12.636-5.486 15.158-6.526 7.228-3.016 8.71-3.536 9.698-3.536.208 0 .702.052 1.014.312.26.208.338.494.364.702-.026.156.026.624 0 .988z" fill="currentColor"/></svg>