<?xml version="1.0" encoding="utf-8"?><svg width="49" height="49" fill="none" xmlns="http://www.w3.org/2000/svg" viewBox="0 0 49 49"><path d="M32.029 0H16.996C3.266 0 0 3.266 0 16.971v15.033C0 45.732 3.241 49 16.971 49h15.033C45.732 49 49 45.759 49 32.029V16.996C49 3.266 45.759 0 32.029 0zm7.529 34.962h-3.575c-1.352 0-1.759-1.096-4.184-3.521-2.117-2.041-3.011-2.296-3.548-2.296-.74 0-.943.204-.943 1.225v3.215c0 .87-.282 1.379-2.553 1.379a13.946 13.946 0 01-10.898-6.534 28.484 28.484 0 01-5.64-11.841c0-.537.204-1.022 1.225-1.022h3.572c.92 0 1.25.41 1.61 1.353 1.735 5.105 4.694 9.545 5.895 9.545.46 0 .661-.203.661-1.352v-5.258c-.152-2.399-1.426-2.602-1.426-3.47a.881.881 0 01.917-.818h5.615c.767 0 1.022.383 1.022 1.301v7.096c0 .766.33 1.021.56 1.021.461 0 .817-.255 1.66-1.098a29.4 29.4 0 004.39-7.3 1.539 1.539 0 011.556-1.02h3.574c1.07 0 1.299.537 1.07 1.301a44.607 44.607 0 01-4.796 8.245c-.385.588-.54.894 0 1.582.355.537 1.607 1.583 2.45 2.578a15.89 15.89 0 013.01 4.184c.307.995-.205 1.505-1.224 1.505z" fill="currentColor"/></svg>