<?xml version="1.0" encoding="utf-8"?><svg width="49" height="49" fill="none" xmlns="http://www.w3.org/2000/svg" viewBox="0 0 49 49"><path d="M14.657 41.528l-9.771 2.444 2.442-8.55c-1.221-2.036-2.687-8.062-3.664-10.993C9.771-4.886 25.65 3.664 32.978 3.664c7.33 0 18.322 19.543 8.55 34.2-7.817 11.726-21.171 7.329-26.871 3.664zm21.609-10.851c-.506 1.323-2.982 2.586-4.064 2.706-1.081.12-1.078.843-7.234-1.383-6.096-2.286-9.962-8.118-10.28-8.54-.312-.36-2.475-3.066-2.475-5.833 0-2.767 1.522-4.147 2.094-4.69.572-.544 1.205-.722 1.586-.722.382 0 .826.06 1.143.06.38 0 .825-.18 1.332.962.506 1.142 1.719 3.91 1.84 4.21.123.301.254.602.065.962a7.597 7.597 0 01-.572.963c-.313.296-.635.72-.888.96-.313.297-.634.602-.255 1.144.38.542 1.587 2.406 3.364 3.909 2.284 1.925 4.252 2.525 4.823 2.826.57.3.951.241 1.269-.12.381-.36 1.524-1.63 1.903-2.222.382-.542.826-.481 1.333-.296.574.173 3.487 1.558 4.128 1.854.57.297 1.016.421 1.143.66.19.124.19 1.266-.255 2.59z" fill-rule="evenodd" fill="currentColor"/><path d="M24.894 0C11.672 0 .931 10.63.931 23.807a23.807 23.807 0 003.414 12.307L0 48.857l13.285-4.22c3.551 1.972 7.548 3 11.61 2.983 13.222 0 23.962-10.629 23.962-23.807C48.857 10.635 38.117 0 24.894 0zm.063 43.822a19.96 19.96 0 01-11.112-3.294l-7.761 2.486 2.545-7.459a19.867 19.867 0 01-3.848-11.748c0-11.064 9-20.015 20.113-20.015s20.176 8.951 20.237 20.015c0 11.064-9.063 20.015-20.174 20.015z" fill="currentColor"/></svg>