<svg width="74" height="74" viewBox="0 0 74 74" fill="none" xmlns="http://www.w3.org/2000/svg">
<rect width="74" height="74" fill="white"/>
<g clip-path="url(#clip0_1097_3551)">
<path d="M44.4866 16.4688H30.9199V17.3497H44.4866V16.4688Z" fill="#04412B"/>
<path d="M52.9437 25.8945H30.9199V26.7755H52.9437V25.8945Z" fill="#04412B"/>
<path d="M52.9437 21.2266H30.9199V22.1075H52.9437V21.2266Z" fill="#04412B"/>
<path d="M52.9437 30.6523H30.9199V31.5333H52.9437V30.6523Z" fill="#04412B"/>
<path d="M33.563 44.3945H10.6582V45.2755H33.563V44.3945Z" fill="#04412B"/>
<path d="M19.0273 39.7266H10.6582V40.6075H19.0273V39.7266Z" fill="#04412B"/>
<path d="M33.563 49.1523H10.6582V50.0333H33.563V49.1523Z" fill="#04412B"/>
<path d="M59.022 49.4161L43.8696 40.6065H24.3125V8.1875H65.7173V40.6065H59.022V49.4161ZM25.1935 39.7256H44.1339L58.1411 47.8304V39.7256H64.8363V9.06845H25.1935V39.7256Z" fill="#04412B"/>
<path d="M11.6269 65.8016V57.0802H4.93164V28.4492H25.0174V29.3302H5.81259V56.1992H12.5078V64.304L26.515 56.1992H39.465V40.3421H40.3459V57.0802H26.7793L11.6269 65.8016Z" fill="#04412B"/>
<path d="M58.4953 34.4397C64.3337 34.4397 69.0667 29.7067 69.0667 23.8683C69.0667 18.0299 64.3337 13.2969 58.4953 13.2969C52.6568 13.2969 47.9238 18.0299 47.9238 23.8683C47.9238 29.7067 52.6568 34.4397 58.4953 34.4397Z" fill="#04412B"/>
<path d="M57.3493 26.2501V25.3692C57.3493 24.8406 57.4374 24.4001 57.7017 24.1358C57.9659 23.7834 58.3183 23.4311 58.8469 23.0787C59.2874 22.7263 59.6398 22.3739 59.904 22.1096C60.1683 21.8454 60.2564 21.493 60.2564 21.0525C60.2564 20.5239 60.0802 20.1715 59.7278 19.8192C59.3755 19.5549 58.935 19.3787 58.4064 19.3787C57.8778 19.3787 57.4374 19.5549 57.085 19.8192C56.7326 20.1715 56.5564 20.5239 56.5564 21.0525V21.493C56.5564 21.5811 56.4683 21.6692 56.3802 21.6692L55.1469 21.5811C55.0588 21.5811 54.9707 21.493 54.9707 21.4049V21.0525C54.9707 20.4358 55.1469 19.9073 55.4112 19.3787C55.6755 18.9382 56.1159 18.4977 56.6445 18.2334C57.1731 17.9692 57.7898 17.793 58.4945 17.793C59.5517 17.793 60.3445 18.0573 60.9612 18.6739C61.5778 19.2025 61.9302 19.9953 61.9302 20.8763C61.9302 21.4049 61.8421 21.8453 61.6659 22.1977C61.4898 22.5501 61.3136 22.8144 61.0493 23.0787C60.785 23.343 60.5207 23.5192 60.1683 23.8715C59.7278 24.1358 59.4636 24.4001 59.2874 24.6644C59.1112 24.8406 59.0231 25.1049 59.0231 25.4573V26.2501C59.0231 26.3382 58.935 26.4263 58.8469 26.4263H57.5255C57.4374 26.4263 57.3493 26.3382 57.3493 26.2501ZM57.3493 29.5977C57.1731 29.4215 57.085 29.1573 57.085 28.8049C57.085 28.4525 57.1731 28.1882 57.3493 28.012C57.5255 27.8358 57.7898 27.7477 58.1421 27.7477C58.4945 27.7477 58.7588 27.8358 58.935 28.012C59.1112 28.1882 59.1993 28.4525 59.1993 28.8049C59.1993 29.1573 59.1112 29.4215 58.935 29.5977C58.7588 29.7739 58.4945 29.862 58.1421 29.862C57.7898 29.862 57.5255 29.7739 57.3493 29.5977Z" fill="white"/>
</g>
<defs>
<clipPath id="clip0_1097_3551">
<rect width="64.1333" height="57.6143" fill="white" transform="translate(4.93359 8.19141)"/>
</clipPath>
</defs>
</svg>
