<svg width="71" height="71" viewBox="0 0 71 71" fill="none" xmlns="http://www.w3.org/2000/svg">
<rect width="71" height="71" fill="white"/>
<g clip-path="url(#clip0_1097_3531)">
<path d="M49.8686 46.9102H34.6543V47.7554H49.8686V46.9102Z" fill="#013220"/>
<path d="M49.8686 43.5312H34.6543V44.3765H49.8686V43.5312Z" fill="#013220"/>
<path d="M43.3602 40.1484H34.6543V40.9937H43.3602V40.1484Z" fill="#013220"/>
<path d="M30.0054 58.3224H11.4102V37.1914H30.0054V58.3224ZM12.2554 57.4771H29.1602V38.0366H12.2554V57.4771Z" fill="#013220"/>
<path d="M62.5465 64.6611H5.07031V30.8516H27.8917V31.6968H5.91555V63.8158H61.7013V31.6968H39.7251V30.8516H62.5465V64.6611Z" fill="#013220"/>
<path d="M39.7259 34.2321H27.8926V26.625H39.7259V34.2321ZM28.7378 33.3869H38.8807V27.4702H28.7378V33.3869Z" fill="#013220"/>
<path d="M5.78619 9.02843L5.22461 9.66016L28.0301 29.9331L28.5917 29.3013L5.78619 9.02843Z" fill="#013220"/>
<path d="M8.46392 6.31358L7.90234 6.94531L30.7078 27.2182L31.2694 26.5865L8.46392 6.31358Z" fill="#013220"/>
<path d="M61.9466 9.01189L39.1289 29.2695L39.6901 29.9016L62.5078 9.64396L61.9466 9.01189Z" fill="#013220"/>
<path d="M59.2864 6.39861L36.4688 26.6562L37.0299 27.2883L59.8476 7.03068L59.2864 6.39861Z" fill="#013220"/>
<path d="M55.7854 60.4342C61.3872 60.4342 65.9283 55.893 65.9283 50.2913C65.9283 44.6895 61.3872 40.1484 55.7854 40.1484C50.1837 40.1484 45.6426 44.6895 45.6426 50.2913C45.6426 55.893 50.1837 60.4342 55.7854 60.4342Z" fill="#013220"/>
<path d="M55.7007 55.1956L50.8828 50.2933L52.0661 49.1099L55.6161 52.6599L60.9411 46.5742L62.209 47.673L55.7007 55.1956Z" fill="white"/>
<path d="M20.7074 51.9812C18.1717 51.9812 16.0586 49.8681 16.0586 47.3324C16.0586 44.7967 18.1717 42.6836 20.7074 42.6836C23.2431 42.6836 25.3562 44.7967 25.3562 47.3324C25.3562 49.8681 23.2431 51.9812 20.7074 51.9812ZM20.7074 43.5288C18.5943 43.5288 16.9038 45.2193 16.9038 47.3324C16.9038 49.4455 18.5943 51.136 20.7074 51.136C22.8205 51.136 24.511 49.4455 24.511 47.3324C24.511 45.2193 22.8205 43.5288 20.7074 43.5288Z" fill="#013220"/>
<path d="M26.6243 57.4769H25.7791C25.7791 55.3638 23.497 53.6734 20.7077 53.6734C17.9184 53.6734 15.6363 55.3638 15.6363 57.4769H14.791C14.791 54.9412 17.4113 52.8281 20.7077 52.8281C24.0041 52.8281 26.6243 54.9412 26.6243 57.4769Z" fill="#013220"/>
</g>
<defs>
<clipPath id="clip0_1097_3531">
<rect width="60.8571" height="58.3214" fill="white" transform="translate(5.07227 6.33984)"/>
</clipPath>
</defs>
</svg>
