<?xml version="1.0" encoding="utf-8"?><svg viewBox="0 0 29 23" xmlns="http://www.w3.org/2000/svg" xmlns:xlink="http://www.w3.org/1999/xlink"><style>:root>svg{display:none}:root>svg:target{display:block}</style><svg fill="none" viewBox="0 0 29 23" id="main_burger" xmlns="http://www.w3.org/2000/svg"><path fill="currentColor" d="M29 .215v4.849H0V.214zM29 8.7v4.848H0V8.7zM29 17.185v4.85H0v-4.85z"/></svg><svg fill="none" viewBox="0 0 14 15" id="plus" xmlns="http://www.w3.org/2000/svg"><path d="M13.811 6.109v3.11H8.714v5.53H5.258v-5.53H.16V6.11h5.098V.579h3.456v5.53h5.097z" fill="currentColor"/></svg><svg fill="none" viewBox="0 0 19 17" id="rutube" xmlns="http://www.w3.org/2000/svg"><g clip-path="url(#cclip0_1029_9445)" fill="currentColor"><path d="M10.01 10.28H2.981V7.4h7.03c.41 0 .695.074.839.203.143.13.232.37.232.72v1.034c0 .37-.09.61-.232.739-.144.13-.43.184-.84.184zm.482-5.595H0V17h2.981v-4.007h5.494L11.082 17h3.338l-2.874-4.025c1.06-.163 1.535-.5 1.927-1.053.393-.554.59-1.44.59-2.622v-.924c0-.701-.072-1.255-.197-1.68a2.823 2.823 0 00-.643-1.125 2.887 2.887 0 00-1.107-.684c-.428-.13-.964-.203-1.624-.203zM16.712 4.684c1.265 0 2.29-1.049 2.29-2.342 0-1.294-1.025-2.342-2.29-2.342-1.265 0-2.29 1.048-2.29 2.342 0 1.293 1.025 2.342 2.29 2.342z"/></g><defs><clipPath id="cclip0_1029_9445"><path fill="#fff" d="M0 0h19v17H0z"/></clipPath></defs></svg><svg fill="none" viewBox="0 0 17 14" id="telegram" xmlns="http://www.w3.org/2000/svg"><path fill-rule="evenodd" clip-rule="evenodd" d="M1.306 6.313C5.553 4.424 8.384 3.18 9.801 2.577 13.846.86 14.687.561 15.235.551c.12-.002.39.028.564.173a.632.632 0 01.207.403c.02.115.044.379.025.585-.22 2.352-1.168 8.059-1.65 10.693-.205 1.114-.607 1.488-.996 1.524-.846.08-1.488-.57-2.308-1.119-1.282-.858-2.006-1.392-3.25-2.23-1.438-.967-.506-1.499.313-2.368.215-.227 3.942-3.689 4.014-4.003.01-.039.018-.185-.068-.262-.085-.078-.21-.051-.301-.03-.129.03-2.177 1.412-6.144 4.146-.582.408-1.108.606-1.58.596-.52-.012-1.52-.3-2.264-.547C.884 7.809.159 7.649.223 7.135c.032-.268.394-.542 1.083-.822z" fill="currentColor"/></svg><svg fill="none" viewBox="0 0 20 13" id="vk" xmlns="http://www.w3.org/2000/svg"><path fill-rule="evenodd" clip-rule="evenodd" d="M.04.55C.196 7.984 3.99 12.45 10.642 12.45h.377V8.197c2.445.238 4.293 1.989 5.035 4.252h3.453c-.948-3.383-3.441-5.253-4.998-5.967C16.067 5.6 18.256 3.457 18.78.55H15.64c-.68 2.358-2.7 4.502-4.62 4.704V.551H7.882v8.241C5.937 8.316 3.48 6.005 3.37.551H.04z" fill="currentColor"/></svg></svg>