<svg width="65" height="65" viewBox="0 0 65 65" fill="none" xmlns="http://www.w3.org/2000/svg">
<rect width="65" height="65" fill="white"/>
<path d="M35.5951 29.7954V23.9918C35.5951 19.968 31.107 16.6406 25.5356 16.6406C19.9642 16.6406 15.4761 19.968 15.4761 23.9918V29.7954H4.25586V60.7478H9.67253V55.3311H30.1785V42.3311H55.3273V60.7478H60.744V29.7954H35.5951ZM16.2499 23.9918C16.2499 20.3549 20.4285 17.4144 25.5356 17.4144C30.6428 17.4144 34.8213 20.3549 34.8213 23.9918V29.7954H30.5654V25.9263H29.7916V29.7954H21.744V25.9263H20.9701V29.7954H16.2499V23.9918ZM29.4047 54.5573H9.67253V42.3311H29.4047V54.5573ZM9.67253 41.5573V35.2121H29.4047V41.5573H9.67253ZM55.3273 41.5573H30.1785V35.2121H55.3273V41.5573ZM59.9701 59.974H56.1011V34.4382H8.89872V59.974H5.02967V30.5692H59.9701V59.974Z" fill="#04412B"/>
<path d="M25.1482 44.4961H13.541V48.3651H25.1482V44.4961Z" fill="#04412B"/>
<path d="M25.1491 15.0911C28.1669 15.0911 30.5658 12.6923 30.5658 9.67448C30.5658 6.65662 28.1669 4.25781 25.1491 4.25781C22.1312 4.25781 19.7324 6.65662 19.7324 9.67448C19.7324 12.6923 22.1312 15.0911 25.1491 15.0911ZM25.1491 5.03162C27.7027 5.03162 29.7919 7.12091 29.7919 9.67448C29.7919 12.2281 27.7027 14.3173 25.1491 14.3173C22.5955 14.3173 20.5062 12.2281 20.5062 9.67448C20.5062 7.12091 22.5955 5.03162 25.1491 5.03162Z" fill="#04412B"/>
</svg>
