<svg width="66" height="66" viewBox="0 0 66 66" fill="none" xmlns="http://www.w3.org/2000/svg">
<rect width="66" height="66" fill="white"/>
<path fill-rule="evenodd" clip-rule="evenodd" d="M58.4856 6.41016C58.5194 6.43613 58.5504 6.45992 58.5742 6.48371C59.2814 7.19085 59.6742 8.21228 59.6742 9.31228V9.39085V14.2623V14.498H52.3671V19.5266H57.3171V53.1551H48.8314V60.7766H6.32422V32.4908H14.1814V9.31228C14.1814 7.03371 15.9885 5.22656 18.2671 5.22656H55.8242C56.0599 5.22656 56.2956 5.30513 56.5314 5.38371C57.0028 5.46228 57.4742 5.69799 57.8671 5.93371H57.9456C57.9849 5.97299 58.0439 6.01228 58.1028 6.05156C58.1617 6.09085 58.2206 6.13013 58.2599 6.16942C58.3147 6.27899 58.4077 6.35035 58.4856 6.41016ZM18.2671 6.01228C16.4599 6.01228 14.9671 7.50513 14.9671 9.31228V32.4908H18.0314V24.0837H37.1242V32.4123H48.8314V46.398H51.6599V9.31228C51.6599 7.89799 52.2885 6.71942 53.3099 6.01228H18.2671ZM18.8171 32.4123H36.3385V24.8694H18.8171V32.4123ZM7.10993 59.9908H48.0456V33.2766H37.1242V35.7123H36.3385V33.2766H18.8171V35.7123H18.0314V33.2766H7.10993V59.9908ZM56.5314 52.3694V20.3123H52.4456V47.1051H48.8314V52.3694H56.5314ZM18.6593 10.7266H28.8736V11.5123H18.6593V10.7266ZM18.6593 14.9697H46.5522V15.7554H18.6593V14.9697ZM46.5522 19.2912H18.6593V20.0769H46.5522V19.2912ZM18.1882 40.8185H36.8882V41.6042H18.1882V40.8185ZM36.8882 45.0632H18.1882V45.8489H36.8882V45.0632Z" fill="#04412B"/>
</svg>
