<svg width="68" height="65" viewBox="0 0 68 65" fill="none" xmlns="http://www.w3.org/2000/svg">
<path d="M17.4456 64.4198L0.314453 54.2536V0.148438L17.4363 10.5917L33.5828 0.498081L49.8654 10.5917L67.1244 0.152971V54.2534L49.8573 64.4197L33.584 54.6031L17.4456 64.4198ZM33.5828 53.241L49.8654 63.0667L65.962 53.5907L65.9665 2.21479L49.8618 11.9542L33.5885 1.86515L17.4466 11.9542L1.47788 2.21479V53.586L17.442 63.0621L33.5828 53.241Z" fill="#04412B"/>
<path d="M17.3457 11.1953H17.9269V63.7382H17.3457V11.1953Z" fill="black"/>
<path d="M33.4277 1.18359H34.0089V53.7265H33.4277V1.18359Z" fill="black"/>
<path d="M49.5703 11.1953H50.1515V63.7382H49.5703V11.1953Z" fill="black"/>
<path d="M19.1011 37.182C16.1452 37.182 14.3926 36.1831 13.984 35.5566L13.8796 35.3931C13.3983 34.6303 12.5855 33.3544 10.3017 32.9593C7.8952 32.5461 7.2459 32.1239 6.97797 31.579C6.95073 31.5245 6.81905 31.4428 6.701 31.3701C6.41495 31.1976 6.01992 30.9569 5.94727 30.4757C5.86554 29.9399 6.21062 29.2361 7.00067 28.3234C8.7397 26.3302 8.17212 25.7535 7.57732 25.145C7.45017 25.0133 7.31397 24.8771 7.20953 24.7318C7.0824 24.5547 7.04153 24.4049 7.0824 24.2687C7.1505 24.0462 7.42294 23.9508 7.76348 23.8282C8.21753 23.6648 8.84413 23.4423 9.24365 22.8339C9.83392 21.9394 12.4039 20.6953 14.1247 20.6953C14.774 20.6953 15.2326 20.8679 15.4914 21.2175C15.9046 21.7714 17.412 22.4842 22.2659 22.7612L22.3612 22.7658C22.9288 22.7976 23.5009 23.2561 23.8187 23.9327C24.1411 24.6183 24.1048 25.3311 23.7279 25.8442C23.6008 26.0167 23.5872 26.1893 23.687 26.3845C24.0775 27.1519 25.912 27.842 26.6157 27.842C27.0606 27.842 27.3966 28.06 27.4874 28.4096C27.601 28.8409 27.3467 29.5084 26.2979 30.0986C26.0617 30.2303 25.9346 30.3711 25.9301 30.5073C25.9165 30.8478 26.5612 31.2928 27.0788 31.647C27.5692 31.983 27.9915 32.2736 28.105 32.5732C28.1958 32.8003 28.4682 33.0228 28.727 33.2316C29.0585 33.4995 29.3763 33.7538 29.34 34.0625C29.3173 34.2714 29.1493 34.4439 28.8088 34.6119C27.9461 35.0342 27.215 35.2113 26.2978 35.2113C26.0526 35.2113 25.7983 35.1977 25.5395 35.184L25.4896 35.1795C25.1581 35.1795 24.8812 35.3793 24.4998 35.6472C23.8187 36.1285 22.7879 36.8641 20.5222 37.0956C20.0409 37.1592 19.5643 37.182 19.1011 37.182ZM14.1156 20.9901C12.5173 20.9901 10.0246 22.1661 9.47969 22.9971C9.02563 23.6872 8.34909 23.9279 7.85422 24.105C7.62265 24.1867 7.382 24.273 7.35476 24.3592C7.35022 24.3774 7.34568 24.4319 7.44103 24.5636C7.53638 24.6952 7.65443 24.8178 7.78157 24.945C8.41725 25.5897 9.13469 26.3208 7.21854 28.5183C6.4966 29.3493 6.16514 29.994 6.23324 30.4344C6.28773 30.784 6.5874 30.9657 6.85075 31.1246C7.0233 31.229 7.17313 31.3198 7.24124 31.4515C7.41832 31.8147 7.82243 32.237 10.3515 32.6729C12.7625 33.0861 13.6162 34.4301 14.1247 35.2337L14.2292 35.3927C14.6333 36.0147 16.4131 36.8866 19.1011 36.8866C19.5506 36.8866 20.0183 36.8639 20.486 36.8139C22.67 36.5869 23.6235 35.9103 24.3228 35.4154C24.7541 35.1067 25.0947 34.8706 25.5487 34.8933C25.803 34.9114 26.0482 34.9205 26.2888 34.9205C26.929 34.9205 27.6601 34.8524 28.6726 34.353C28.8997 34.2394 29.0313 34.1305 29.0404 34.0351C29.0586 33.8808 28.7816 33.6583 28.5364 33.463C28.2458 33.2269 27.9416 32.9863 27.8281 32.682C27.7418 32.4686 27.3196 32.1735 26.9064 31.892C26.2707 31.4516 25.6078 31.0021 25.6304 30.4981C25.644 30.2529 25.8166 30.0349 26.1435 29.8488C26.9926 29.372 27.2832 28.8226 27.1924 28.4866C27.1333 28.2641 26.9154 28.1324 26.6021 28.1324C25.803 28.1324 23.8641 27.4014 23.4146 26.516C23.2648 26.2254 23.292 25.9303 23.4827 25.6715C23.796 25.2447 23.8187 24.6408 23.5418 24.0551C23.2739 23.483 22.788 23.0834 22.3294 23.0562L22.2341 23.0516C18.2475 22.8246 15.8955 22.2661 15.2417 21.3898C15.051 21.1264 14.665 20.9901 14.1156 20.9901Z" fill="black"/>
<path d="M8.88641 50.1124C8.4142 50.1124 7.38346 49.7582 7.38346 48.7094C7.38346 48.2644 6.80682 47.7377 6.24833 47.2292C5.68984 46.7207 5.11773 46.194 4.96786 45.6491C4.80894 45.0634 4.8498 44.6139 5.09045 44.2733C5.36289 43.8874 5.88051 43.6785 6.66605 43.624C7.97826 43.5378 8.06451 42.8203 8.06451 42.7886L8.07813 42.6523L8.21888 42.6569C9.572 42.7295 9.84888 43.0973 10.0715 43.565C10.126 43.6785 10.1714 43.7784 10.2531 43.8601C10.2849 43.8919 10.3303 43.9237 10.4438 43.9237C10.5437 43.9237 10.6754 43.901 10.8297 43.8692C11.0568 43.8283 11.3428 43.7739 11.6879 43.7739C12.1919 43.7739 12.6914 43.8874 13.2135 44.1189C14.6256 44.7455 14.3305 45.8262 14.1579 46.4709C14.1035 46.6616 14.0535 46.8478 14.0717 46.934C14.1216 47.1838 14.0127 47.5107 13.7811 47.8104C13.4996 48.1691 12.8094 48.782 11.3201 48.8501C9.9807 48.9137 9.5856 49.4404 9.32686 49.7855C9.19064 49.9626 9.07712 50.1124 8.88641 50.1124ZM8.32338 42.9519C8.23711 43.2334 7.91019 43.8328 6.6842 43.9145C6.00311 43.9599 5.54452 44.137 5.32654 44.4412C5.14037 44.7046 5.11314 45.0769 5.24935 45.5718C5.37649 46.0395 5.92136 46.5344 6.44346 47.0157C7.0746 47.5924 7.67395 48.1418 7.67395 48.7093C7.67395 49.6219 8.64563 49.8217 8.88631 49.8217C8.93172 49.8217 9.00891 49.7218 9.09063 49.6128C9.3676 49.2451 9.8262 48.6321 11.3018 48.564C12.6731 48.5004 13.2951 47.9556 13.5449 47.6332C13.7583 47.3607 13.8082 47.1156 13.781 46.993C13.7492 46.834 13.8037 46.6388 13.8718 46.3936C14.0534 45.7352 14.2759 44.9134 13.0908 44.3867C12.605 44.1687 12.1464 44.0643 11.6833 44.0643C11.3654 44.0643 11.1066 44.1097 10.8796 44.1551C10.4982 44.2277 10.2212 44.2414 10.0441 44.0643C9.92609 43.9462 9.86706 43.8146 9.80804 43.6874C9.65366 43.3696 9.49932 43.0382 8.32338 42.9519Z" fill="black"/>
<path d="M22.745 46.8848C22.3318 46.8848 22.0276 46.7622 21.8687 46.5352C21.7688 46.3944 21.6871 46.1447 21.8278 45.7542C22.0185 45.232 21.787 44.9278 21.5191 44.5737C21.2966 44.2831 21.0469 43.9516 21.0469 43.4794C21.0469 42.8029 21.4828 42.3988 22.2138 42.3988C22.5589 42.3988 22.963 42.4896 23.3807 42.6667C23.5033 42.7212 23.6395 42.7439 23.7848 42.7439C24.761 42.7439 25.8235 41.5543 25.8326 41.5406L25.9415 41.418L26.0505 41.5406C26.9949 42.5803 27.3718 43.4566 27.1993 44.2286C26.9541 45.3364 25.601 45.8995 24.702 46.2763C24.4931 46.3626 24.307 46.4398 24.1617 46.5124C23.6895 46.7485 23.1764 46.8848 22.745 46.8848ZM22.2092 42.6893C21.8097 42.6893 21.3329 42.8255 21.3329 43.4794C21.3329 43.8562 21.5327 44.1196 21.7461 44.3966C22.0231 44.7643 22.3409 45.1821 22.1003 45.8541C22.0185 46.0766 22.0231 46.2491 22.1048 46.3671C22.3318 46.6895 23.2536 46.6396 24.0299 46.2536C24.1798 46.1764 24.3705 46.0993 24.5884 46.0084C25.4784 45.6361 26.6998 45.1276 26.9132 44.165C27.0539 43.5294 26.727 42.7483 25.937 41.8493C25.6237 42.1717 24.7019 43.0299 23.7802 43.0299C23.5986 43.0299 23.426 42.9981 23.2671 42.93C22.8812 42.7756 22.5135 42.6893 22.2092 42.6893Z" fill="black"/>
<path d="M56.9718 48.1908C56.3225 48.1908 55.8639 47.2554 55.5369 46.4382C55.4189 46.1385 55.201 46.193 54.9603 46.2248C54.865 46.2384 54.7651 46.252 54.6743 46.252C54.4109 46.252 54.2247 46.1476 54.0976 45.9387C53.9569 45.7026 53.8842 45.3076 53.8842 44.7401C53.8842 43.4596 54.9149 42.3881 55.8231 41.4437C56.6858 40.5492 57.4985 39.7001 57.2806 38.8693C57.0989 38.1791 56.5359 37.6297 55.9956 37.094C55.1328 36.2449 54.2384 35.3685 54.865 33.9292C55.3553 32.8076 55.4234 31.8905 55.0693 31.3455C54.8559 31.0186 54.4881 30.8415 54.0295 30.8415C53.8933 30.8415 53.7162 30.837 53.5028 30.8279C53.1986 30.8188 52.8308 30.8052 52.4267 30.8052C49.7614 30.8052 48.3674 31.3546 48.1676 32.4897C47.7998 34.5784 47.4275 36.1721 46.2833 36.1721C46.247 36.1721 46.2107 36.1721 46.1698 36.1676C45.1936 36.0904 41.484 37.4798 41.484 40.8671C41.484 41.9477 40.7984 42.1066 40.3898 42.1066C38.8415 42.1066 36.2805 40.018 35.8946 38.4425C35.7266 37.7433 35.9763 37.1984 36.6211 36.8624C37.1932 36.5672 37.5201 36.2721 37.6018 35.9815C37.679 35.7 37.5201 35.4412 37.3612 35.1914C37.2159 34.9599 37.0661 34.7192 37.1796 34.4877C37.3158 34.2061 37.8153 34.0472 38.9005 33.9382C38.9368 33.9382 41.1616 33.8474 42.8462 28.7121C44.2582 24.3941 44.4899 24.0217 45.0302 24.0217C45.0937 24.0217 45.1618 24.0307 45.239 24.0398C45.3162 24.0489 45.407 24.0625 45.5069 24.0625C46.3333 24.0625 51.3505 21.9193 52.8489 20.0487C53.1486 19.6719 53.3893 19.3086 53.5981 18.9908C54.0885 18.2507 54.4381 17.7148 55.0828 17.7148C55.6277 17.7148 56.3224 18.119 57.4167 19.0634C59.074 20.4983 59.3101 21.2112 59.6642 22.2826C59.9367 23.109 60.2727 24.1306 61.4169 25.8969C63.7733 29.5475 64.3047 31.609 63.2512 33.0165C63.1513 33.1482 63.0423 33.2844 62.9334 33.4251C62.0343 34.5466 61.0128 35.818 62.5747 37.8794C64.2865 40.1315 64.2456 42.2292 62.4566 43.7911C61.8209 44.345 61.2216 44.395 60.6904 44.4404C59.8731 44.5085 59.1693 44.5675 58.4292 46.4473C57.957 47.6188 57.4849 48.1908 56.9718 48.1908ZM55.201 45.9115C55.4962 45.9115 55.6914 46.0477 55.8049 46.3292C55.9593 46.7197 56.4315 47.9003 56.9718 47.9003C57.2306 47.9003 57.6393 47.6279 58.1523 46.3292C58.956 44.2815 59.7869 44.2133 60.6587 44.1407C61.1672 44.0998 61.6939 44.0544 62.2569 43.5641C63.9324 42.0975 63.9642 40.1905 62.3341 38.0473C60.6315 35.8088 61.8256 34.3241 62.6973 33.2389C62.8109 33.1027 62.9153 32.9665 63.0106 32.8393C63.719 31.8949 63.9869 30.4193 61.1627 26.0513C60.0003 24.2577 59.6552 23.2135 59.3782 22.3734C59.0377 21.3427 58.8152 20.6661 57.2169 19.2813C56.1998 18.4004 55.5414 18.0053 55.0737 18.0053C54.5833 18.0053 54.2837 18.4594 53.8342 19.1495C53.6208 19.4765 53.3756 19.8442 53.0668 20.2302C51.4867 22.2053 46.3741 24.353 45.4932 24.353C45.3752 24.353 45.2798 24.3394 45.189 24.3303C45.1254 24.3212 45.0709 24.3167 45.021 24.3167C44.6759 24.3167 44.4035 24.8752 43.114 28.8073C41.3568 34.1742 39.0048 34.2333 38.9095 34.2333C37.7925 34.3468 37.4882 34.5057 37.4338 34.6192C37.393 34.7055 37.4928 34.8689 37.6018 35.0415C37.7744 35.3139 37.9878 35.6544 37.8743 36.0631C37.7698 36.44 37.402 36.785 36.7482 37.1256C36.2306 37.3935 36.0353 37.8157 36.1716 38.3787C36.5257 39.8272 38.9639 41.825 40.3852 41.825C40.9255 41.825 41.1889 41.5117 41.1889 40.876C41.1889 37.3843 44.8939 35.8814 46.0699 35.8814C46.1108 35.8814 46.1516 35.8859 46.1925 35.8859C46.2197 35.8904 46.2515 35.8904 46.2788 35.8904C47.1142 35.8904 47.4821 34.6826 47.877 32.4488C48.1041 31.1547 49.5934 30.5236 52.4222 30.5236C52.8308 30.5236 53.2031 30.5373 53.5073 30.5463C53.7162 30.5554 53.8933 30.56 54.025 30.56C54.5834 30.56 55.0375 30.787 55.3054 31.1956C55.6006 31.6406 55.8049 32.4988 55.1284 34.0561C54.5835 35.3093 55.3327 36.0494 56.1954 36.8985C56.7675 37.457 57.3532 38.0382 57.5576 38.8055C57.8209 39.7999 56.9491 40.7034 56.032 41.6569C55.1193 42.6059 54.1748 43.5867 54.1748 44.7491C54.1748 45.2576 54.2339 45.6118 54.3428 45.7979C54.42 45.9205 54.5108 45.9705 54.6697 45.9705C54.7515 45.9705 54.8377 45.9569 54.9195 45.9478C55.0148 45.9251 55.1102 45.9115 55.201 45.9115Z" fill="black"/>
<path d="M58.4294 17.2762C57.9617 17.2762 57.1717 17.0674 57.1717 15.678C57.1717 15.124 56.863 14.8743 56.5088 14.5837C56.141 14.2795 55.7188 13.9389 55.7188 13.2124C55.7188 12.4769 56.0003 12.1499 56.6269 12.1499C56.9356 12.1499 57.3216 12.2226 57.8028 12.3134C58.0162 12.3543 58.2523 12.3997 58.5021 12.4405C58.6292 12.4632 58.7563 12.4723 58.8789 12.4723C60.2275 12.4723 60.8586 11.151 60.8676 11.142C61.5987 10.2157 61.9074 10.0977 62.0936 10.0977C62.189 10.0977 62.2752 10.134 62.3479 10.2066C62.5794 10.4427 62.5658 11.0375 62.5431 11.7277C62.5295 12.2136 62.5068 13.0218 62.693 13.0808C62.9472 13.158 63.0607 13.3941 63.0108 13.721C62.8927 14.4793 61.8757 15.7371 60.9993 15.7371C60.4045 15.7371 59.7869 16.2865 59.2875 16.7269C58.9242 17.0447 58.6564 17.2762 58.4294 17.2762ZM56.6268 12.436C56.2227 12.436 56.0093 12.5586 56.0093 13.2079C56.0093 13.7981 56.3271 14.0569 56.6949 14.3566C57.0581 14.6517 57.4623 14.9832 57.4623 15.6779C57.4623 16.5451 57.7892 16.9856 58.4294 16.9856C58.5474 16.9856 58.838 16.7267 59.0923 16.4997C59.6281 16.0275 60.2909 15.4372 60.9948 15.4372C61.7122 15.4372 62.6202 14.3021 62.7157 13.6665C62.7565 13.3986 62.643 13.3623 62.5976 13.3486C62.2026 13.226 62.2253 12.5223 62.2434 11.7094C62.2571 11.1918 62.2752 10.5516 62.1299 10.4018C62.1163 10.3882 62.1027 10.3836 62.0845 10.3836C62.0073 10.3836 61.7531 10.4699 61.1038 11.2872C61.0947 11.319 60.4091 12.7583 58.8698 12.7583C58.7336 12.7583 58.5883 12.7447 58.4475 12.722C58.1933 12.6811 57.9571 12.6357 57.7437 12.5948C57.2852 12.5086 56.9129 12.436 56.6268 12.436Z" fill="black"/>
<path d="M45.0294 53.1068C44.1666 53.1068 43.2041 52.6755 42.582 52.008C41.9917 51.3723 41.3379 51.3269 40.8112 51.2906C40.457 51.2679 40.1528 51.2452 39.9712 51.0363C39.8531 50.9046 39.8077 50.7094 39.8304 50.4415C39.8531 50.1282 39.8304 49.8694 39.8077 49.656C39.776 49.3472 39.7533 49.102 39.9167 48.925C40.0938 48.7297 40.4389 48.6571 41.2335 48.6571C42.9408 48.6571 43.3312 47.9805 43.3357 47.9715L43.363 47.917L43.4265 47.8988C44.3392 47.6491 44.7614 47.6491 44.9386 47.8943C45.0748 48.0895 44.984 48.3574 44.8705 48.6707C44.6752 49.2246 44.5844 49.6015 45.0748 49.8285L45.2382 49.9057C46.3007 50.4006 46.3688 50.4324 46.3915 51.2951C46.3961 51.454 46.4006 51.6493 46.4188 51.8899C46.4415 52.2123 46.3461 52.4893 46.1554 52.6981C45.9148 52.966 45.5152 53.1068 45.0294 53.1068ZM43.5582 48.1712C43.422 48.3619 42.8635 48.9522 41.238 48.9522C40.5842 48.9522 40.2436 49.0067 40.1347 49.1202C40.062 49.2019 40.0711 49.3563 40.0984 49.6287C40.1211 49.8512 40.1483 50.1237 40.1211 50.4642C40.1074 50.6458 40.1301 50.773 40.1937 50.8411C40.2936 50.9591 40.5297 50.9727 40.8339 50.9954C41.3788 51.0318 42.128 51.0817 42.7954 51.8037C43.363 52.4166 44.2393 52.8117 45.0294 52.8117C45.4335 52.8117 45.7559 52.7027 45.942 52.5029C46.0783 52.3531 46.1418 52.1533 46.1282 51.9126C46.1101 51.6675 46.1055 51.4722 46.101 51.3088C46.0828 50.6231 46.0828 50.6231 45.1157 50.1736L44.9522 50.0964C44.1894 49.7377 44.4346 49.0385 44.598 48.5753C44.6662 48.3801 44.7524 48.1349 44.7025 48.0623C44.6889 48.0441 44.6434 48.0032 44.4664 48.0032C44.2666 48.0123 43.9624 48.0668 43.5582 48.1712Z" fill="black"/>
<path d="M24.1678 17.4818C23.8227 17.4818 23.405 17.4137 22.8918 17.2684C22.5013 17.1594 22.1699 17.0958 21.8975 17.0414C21.3844 16.9415 21.0438 16.8734 20.894 16.6145C20.7623 16.383 20.8032 16.0515 21.0484 15.384C21.3708 14.4986 21.6159 14.2898 21.902 14.0446C22.1381 13.8449 22.406 13.6178 22.801 12.8913C23.1734 12.2103 23.7818 11.8516 24.5582 11.8516C25.1984 11.8516 25.7251 12.0922 25.7478 12.1013C26.4879 12.6371 26.7921 12.9867 26.8284 13.3091C26.8602 13.5997 26.6786 13.8131 26.4697 14.0628C26.2064 14.3671 25.884 14.7485 25.8295 15.4386C25.7296 16.8553 25.2167 17.4818 24.1678 17.4818ZM24.5628 12.1467C23.8863 12.1467 23.3823 12.4464 23.0598 13.0366C22.6376 13.8085 22.3379 14.0673 22.0927 14.2717C21.8294 14.4942 21.6205 14.6758 21.3254 15.4886C21.1256 16.0425 21.0711 16.3376 21.1528 16.4784C21.2345 16.6237 21.5206 16.6782 21.9565 16.7644C22.2289 16.8189 22.574 16.8825 22.9736 16.996C23.464 17.1322 23.8544 17.1958 24.1722 17.1958C25.0576 17.1958 25.4572 16.6827 25.5525 15.4296C25.6116 14.6441 25.9884 14.2036 26.2609 13.8858C26.4607 13.6542 26.5696 13.5135 26.5515 13.3546C26.5242 13.1276 26.2245 12.8097 25.6116 12.3602C25.6025 12.3557 25.1213 12.1467 24.5628 12.1467Z" fill="black"/>
</svg>
