<svg width="71" height="71" viewBox="0 0 71 71" fill="none" xmlns="http://www.w3.org/2000/svg">
<rect width="71" height="71" fill="white"/>
<path d="M30.4292 58.5352H11.834V59.3804H30.4292V58.5352Z" fill="#013220"/>
<path d="M30.4292 55.1523H11.834V55.9976H30.4292V55.1523Z" fill="#013220"/>
<path d="M22.484 51.7734H11.834V52.6187H22.484V51.7734Z" fill="#013220"/>
<path d="M49.8696 24.7227H15.2148V25.5679H49.8696V24.7227Z" fill="#013220"/>
<path d="M34.9934 21.3438H15.2148V22.189H34.9934V21.3438Z" fill="#013220"/>
<path d="M49.7856 11.1992H15.1309V16.2706H49.7856V11.1992Z" fill="#013220"/>
<path d="M60.8577 33.8527V10.7777H55.1101V6.12891H9.88984V28.6122H6.33984V64.873H64.6613V33.8527H60.8577ZM60.0125 11.623V33.8527H55.1101V11.623H60.0125ZM10.7351 6.97414H54.2648V33.8527H31.5279L27.7244 28.6122H10.7351V6.97414ZM63.816 64.0277H7.18508V29.4575H27.3017L31.1053 34.698H63.816V64.0277Z" fill="#013220"/>
</svg>
